Coordinates
version=1
nRows=10
nColumns=27
inDegrees=yes

Units are S.I. units (second, meters, Newtons, ...)
If the header above contains a line with 'inDegrees', this indicates whether rotational values are in degrees (yes) or radians (no).

endheader
time	pelvis_rotation	pelvis_tilt	pelvis_list	pelvis_tx	pelvis_ty	pelvis_tz	hip_flexion_r	hip_adduction_r	hip_rotation_r	knee_angle_r	knee_rotation_r	knee_adduction_r	knee_angle_r_beta	ankle_angle_r	subtalar_angle_r	mtp_angle_r	hip_flexion_l	hip_adduction_l	hip_rotation_l	knee_angle_l	knee_rotation_l	knee_adduction_l	knee_angle_l_beta	ankle_angle_l	subtalar_angle_l	mtp_angle_l
      8.53000000	      1.41100685	    -40.86353896	      3.25375386	     -0.08893908	      0.87282643	     -1.18678155	     72.62473709	    -12.99027949	    -14.76771344	     37.48426866	      2.21940812	      7.95668408	      0.65422391	      2.40511321	      1.75646996	      0.00000000	     69.29924651	     -9.74618451	    -15.25136472	     31.47982358	      2.43965667	     -6.25631889	      0.54942657	      0.16905066	      4.47900586	      0.00000000
      8.53500000	      0.76017057	    -39.17495295	      3.13377928	     -0.08502850	      0.87473253	     -1.18658370	     70.29095815	    -12.64765752	    -15.14224008	     36.73090237	      2.06364518	      8.74874991	      0.64107518	      2.30187554	      1.45277850	      0.00000000	     66.69023106	    -10.08441934	    -16.83543591	     30.75080286	      2.36273392	     -7.27536147	      0.53670276	      0.22849158	      4.40959552	      0.00000000
      8.54000000	      1.27479106	    -39.12595470	      3.25158941	     -0.08415747	      0.87522968	     -1.18682312	     70.02974571	    -13.05557270	    -15.61174306	     36.67794574	      2.12580415	      8.76791036	      0.64015092	      2.37600699	      1.61324624	      0.00000000	     66.57616629	     -9.65306906	    -16.21830063	     30.49116748	      2.35969486	     -7.01120599	      0.53217127	      0.12189812	      4.35784864	      0.00000000
      8.54500000	      1.78083523	    -40.17201926	      3.23669458	     -0.08504370	      0.87485392	     -1.18673678	     71.19320967	    -13.29158356	    -15.81995185	     36.97137105	      2.20028044	      8.63785578	      0.64527215	      2.45565033	      1.65659415	      0.00000000	     67.99138377	     -9.43360019	    -15.03264383	     30.74508154	      2.49894150	     -6.41762890	      0.53660290	      0.13937039	      4.30032992	      0.00000000
      8.55000000	      0.52858024	    -38.98123764	      2.82568060	     -0.08261848	      0.87595135	     -1.18584816	     69.64451410	    -12.29315087	    -15.05159120	     36.30843116	      2.18001532	      8.62828840	      0.63370167	      2.25834234	      1.22715689	      0.00000000	     66.14236891	    -10.38691161	    -16.56343606	     30.52369971	      2.55683277	     -6.84914748	      0.53273906	      0.38647427	      4.77853576	      0.00000000
      8.55500000	      1.31711522	    -38.47493111	      3.03033944	     -0.08093228	      0.87677689	     -1.18629956	     68.75353260	    -12.95383033	    -15.95519751	     36.17750010	      2.19221512	      8.73484705	      0.63141649	      2.45730396	      1.65313203	      0.00000000	     65.43311204	     -9.68625061	    -15.84116950	     29.99266684	      2.48778276	     -6.62692684	      0.52347079	      0.20376841	      4.66945805	      0.00000000
      8.56000000	      1.40182283	    -38.86343402	      3.14320726	     -0.08083109	      0.87676222	     -1.18619012	     69.24422964	    -13.01322503	    -15.77566323	     36.34241738	      2.21557991	      8.63889744	      0.63429484	      2.51034596	      1.64557106	      0.00000000	     65.84946045	     -9.61291906	    -15.63313274	     30.06008745	      2.53187773	     -6.33247929	      0.52464750	      0.25483159	      4.77541153	      0.00000000
      8.56500000	      0.51768824	    -37.81026274	      2.95537653	     -0.07857999	      0.87775108	     -1.18556360	     67.89933479	    -12.36333976	    -15.16246235	     35.83604520	      2.19699128	      8.62606657	      0.62545698	      2.37583812	      1.42713892	      0.00000000	     64.15268183	    -10.20272629	    -16.82041023	     29.69710361	      2.59906897	     -6.64943507	      0.51831224	      0.39392401	      5.04534202	      0.00000000
      8.57000000	      1.14685546	    -38.25871043	      3.18981629	     -0.07848164	      0.87779825	     -1.18580028	     68.35763737	    -12.84305198	    -15.43306358	     36.04966818	      2.25949258	      8.54955097	      0.62918540	      2.55416052	      1.63422431	      0.00000000	     64.72263753	     -9.68884994	    -16.01777645	     29.62720468	      2.57309828	     -6.22218718	      0.51709227	      0.30854192	      5.02511196	      0.00000000
      8.57500000	      1.61798610	    -38.66453287	      3.30325587	     -0.07896025	      0.87758463	     -1.18575214	     68.84147546	    -13.10003240	    -15.30671986	     36.25027593	      2.32487373	      7.82077892	      0.63268667	      2.69948060	      2.14409298	      0.00000000	     65.32052685	     -9.34008724	    -14.96710622	     29.65184187	      2.61745489	     -5.31506927	      0.51752227	      0.25283674	      5.24154676	      0.00000000
